<!DOCTYPE svg PUBLIC "-//W3C//DTD SVG 1.1//EN" "http://www.w3.org/Graphics/SVG/1.1/DTD/svg11.dtd">
<!-- Uploaded to: SVG Repo, www.svgrepo.com, Transformed by: SVG Repo Mixer Tools -->
<svg width="256px" height="256px" viewBox="0 0 64.00 64.00" xmlns="http://www.w3.org/2000/svg" fill="none" stroke="#9600cc" stroke-width="2.6879999999999997">
<g id="SVGRepo_bgCarrier" stroke-width="0"/>
<g id="SVGRepo_tracerCarrier" stroke-linecap="round" stroke-linejoin="round"/>
<g id="SVGRepo_iconCarrier">
<path d="m26.5 36-13.1-.81a4 4 0 0 1-3.76-3.58L8.47 20.42a4 4 0 0 1 4-4.42h39.09a4 4 0 0 1 4 4.42l-1.2 11.19a4 4 0 0 1-3.76 3.58L37.5 36"/>
<path d="M52 34.92V48a4 4 0 0 1-4 4H16a4 4 0 0 1-4-4V34.85"/>
<path d="M27 16v-2a2 2 0 0 1 2-2h6a2 2 0 0 1 2 2v2"/>
<rect x="26.5" y="33.25" width="11" height="5.5" rx="2.75"/>
</g>
</svg>